<svg xmlns="http://www.w3.org/2000/svg" width="785" height="785" viewBox="0 0 207.698 207.698" xmlns:v="https://vecta.io/nano"><path d="M114.647.001c-2.954.008-5.995.208-6.861.451l-3.054.826-1.499.39 2.168 2.263c11.697 12.209 16.357 29.166 12.521 45.556-1.043 4.456-3.391 10.167-5.678 13.808-2.158 3.438-2.28 4.386-.599 4.681v-.001c.544.096 2.606.098 4.583.005 15.664-.739 28.62-11.831 31.916-27.324.705-3.313.68-10.172-.051-13.708-2.156-10.438-9.443-19.5-19.364-24.084C123.96.661 120.632-.017 114.646 0zM70.219.229C63.077.224 55.872 2.252 49.483 6.455c-8.024 5.278-13.585 13.157-16.106 22.816-.724 2.776-.849 4.123-.827 8.94.022 4.919.154 6.157.995 9.33 3.733 14.087 15.672 25.228 29.766 27.776 11.773 2.128 24.086-1.512 32.851-9.711 14.175-13.26 15.812-35.901 3.69-51.042C92.35 5.194 81.361.237 70.219.229zm75.175 67.247l-3.39 2.577c-6.347 4.824-13.544 7.748-22.01 8.945l-1.787.253 1.827 1.891c2.73 2.825 5.593 6.345 7.415 9.118.893 1.358 1.751 2.47 1.906 2.47s1.067-.479 2.026-1.065c4.717-2.88 12.706-5.455 19.49-6.284 1.679-.205 2.444-.507 4.899 6.381-14.386 1.068-26.795 9.496-33.189 22.637-2.771 5.696-3.685 9.515-3.909 16.334-.212 6.457.349 10.09 2.444 15.823 4.833 13.227 17.372 23.464 31.471 25.693 22.882 3.618 44.032-12.361 46.875-35.413 1.829-14.829-5.25-30.154-17.778-38.49-3.956-2.632-7.951-4.451-12.231-5.524-.999-6.271-1.159-7.1-1.413-7.46-1.56-2.207-7.038-7.675-10.047-10.029-3.134-2.452-7.55-5.298-10.685-6.887l-1.913-.969zM98.122 78.542l-3.218 1.902c-15.115 8.932-34.778 8.873-49.627-.149-1.331-.808-2.641-1.47-2.911-1.47-1.082 0-8.514 5.427-11.965 8.738-5.684 5.453-9.341 10.434-12.925 17.606-3.665 7.334-6.198 16.331-7.092 25.194-.219 2.169-.382 13.075-.382 25.502v21.713l1.921.111 1.921.111.395 2.378c.218 1.308.319 4.038.225 6.066-.295 6.39 1.547 9.425 4.346 7.158.814-.659.827-.758.405-3.201-.24-1.387-.424-4.755-.41-7.484l.026-4.962 4.691-.076c4.064-.066 4.722.004 4.922.527.127.332.033.842-.209 1.133-.346.418-.333.597.065.842.506.313.64 3.643.847 20.974.059 4.957.128 5.472.797 5.972v.001c1 .747 3.1.378 3.907-.685 1.135-1.496 1.521-4.047 1.083-7.162-1.257-8.94-1.373-21.134-.197-20.682.308.118.512-.038.512-.392 0-.508.603-.588 4.402-.588 3.873 0 4.426.077 4.6.64.665 2.149 1.268 3.019 2.094 3.019 1.078 0 1.918-.923 2.246-2.47l.253-1.189H73.19h24.346l-.249.823c-.447 1.485-.663 3.872-.43 4.801.354 1.409 1.236 2.06 2.794 2.06 2.061 0 2.556-.894 2.556-4.619v-2.993l1.263.035c1.243.035 1.266.065 1.448 1.885.102 1.017.36 4.738.575 8.268.429 7.062.79 8.938 1.828 9.494 1.118.598 2.512.427 3.35-.411.725-.725.759-.994.485-3.751-.299-3.008-.363-10.231-.118-13.581l.134-1.829 6.484-.1 6.484-.1-2.88-3.925c-6.231-8.49-7.392-16.088-9.636-26.542-2.186-7.857-4.678-7.225-2.304-19.743 1.767-9.318 3.709-17.309 8.622-24.879 1.159-1.786 2.192-2.677 2.058-3.026-.399-1.04-3.281-5.112-5.597-7.909-3.567-4.307-8.345-8.311-13.781-11.547l-2.5-1.488zm55.198 29.872h5.671 5.671v8.958 8.958l9.056.098 9.056.098.101 5.58.101 5.58h-9.157-9.157v9.147 9.148h-5.428c-2.985 0-5.537-.11-5.671-.244s-.243-4.25-.243-9.147v-8.904h-8.965-8.964v-5.671-5.671h8.964 8.965v-8.964-8.964z"/></svg>