<svg xmlns="http://www.w3.org/2000/svg" width="785" height="785" viewBox="0 0 207.698 207.698" xmlns:v="https://vecta.io/nano"><path d="M29.942 207.128c-.669-.5-.737-1.015-.796-5.972-.207-17.331-.341-20.661-.847-20.974-.397-.245-.411-.425-.065-.842.242-.292.336-.802.209-1.133-.201-.523-.858-.593-4.922-.526l-4.691.077-.026 4.962c-.014 2.729.17 6.097.41 7.484.422 2.443.41 2.542-.404 3.202-2.799 2.267-4.642-.768-4.346-7.158.094-2.028-.007-4.757-.225-6.065l-.396-2.378-1.921-.111L10 177.58v-21.713l.382-25.502c.894-8.863 3.426-17.86 7.092-25.194 3.585-7.173 7.241-12.153 12.925-17.606 3.451-3.311 10.883-8.738 11.965-8.738.271 0 1.581.661 2.911 1.47 14.85 9.021 34.513 9.08 49.628.149l3.218-1.902 2.5 1.488c5.436 3.236 10.214 7.24 13.781 11.547 2.316 2.796 5.197 6.868 5.596 7.909 14.407 26.677 14.641 26.759 19.486 78.115l-21.83.1-6.484.1-.134 1.83c-.244 3.349-.181 10.573.118 13.581.274 2.756.24 3.026-.485 3.75-.838.838-2.232 1.009-3.35.411-1.038-.556-1.4-2.432-1.828-9.494l-.575-8.267c-.182-1.82-.205-1.85-1.448-1.885l-1.263-.035v2.993c0 3.725-.495 4.619-2.556 4.619-1.558 0-2.44-.65-2.794-2.06-.233-.928-.017-3.316.43-4.801l.249-.823H73.19 48.844l-.253 1.189c-.329 1.547-1.168 2.47-2.246 2.47-.826 0-1.429-.869-2.095-3.019-.174-.563-.727-.64-4.6-.64-3.799 0-4.402.08-4.402.588 0 .354-.204.51-.512.392-1.177-.451-1.06 11.742.197 20.683.438 3.115.052 5.666-1.083 7.162-.807 1.064-2.908 1.432-3.908.685zM127.449 90.26c-1.822-2.772-4.685-6.292-7.415-9.118l-1.827-1.891 1.788-.253c8.466-1.197 15.662-4.122 22.009-8.946l3.39-2.577 1.913.969c3.135 1.589 7.551 4.435 10.684 6.887 3.009 2.354 8.487 7.823 10.048 10.03.784 1.109 15.618 91.698 14.992 91.514-3.772-1.11-27.218-92.099-32.16-91.495-6.784.829-14.773 3.405-19.49 6.284-.959.585-1.871 1.064-2.026 1.064s-1.013-1.111-1.906-2.47zM63.311 75.316c-14.093-2.547-26.033-13.689-29.766-27.776-.841-3.173-.973-4.412-.995-9.33-.022-4.817.103-6.164.827-8.94 2.521-9.659 8.082-17.537 16.106-22.815C65.84-4.305 87.542-.811 99.852 14.564c12.122 15.14 10.486 37.781-3.689 51.041-8.765 8.199-21.078 11.839-32.851 9.711zm48.335-7.34c-1.681-.295-1.559-1.243.599-4.681 2.286-3.642 4.635-9.353 5.678-13.809 3.837-16.391-.824-33.348-12.521-45.556l-2.168-2.263 1.499-.389 3.054-.827c.866-.243 3.906-.443 6.861-.451 5.986-.017 9.315.661 14.083 2.864 9.922 4.584 17.208 13.647 19.364 24.084.73 3.536.756 10.395.051 13.707-3.297 15.493-16.253 26.585-31.917 27.325-1.977.093-4.039.092-4.583-.005z"/></svg>