<?xml version="1.0" encoding="UTF-8" standalone="no"?>
<!-- Created with Inkscape (http://www.inkscape.org/) -->

<svg
   width="183.60805mm"
   height="48.722996mm"
   viewBox="0 0 183.60805 48.722996"
   version="1.1"
   id="svg5"
   xml:space="preserve"
   inkscape:version="1.2.1 (9c6d41e410, 2022-07-14)"
   sodipodi:docname="patinka.svg"
   xmlns:inkscape="http://www.inkscape.org/namespaces/inkscape"
   xmlns:sodipodi="http://sodipodi.sourceforge.net/DTD/sodipodi-0.dtd"
   xmlns="http://www.w3.org/2000/svg"
   xmlns:svg="http://www.w3.org/2000/svg"><sodipodi:namedview
     id="namedview7"
     pagecolor="#ffffff"
     bordercolor="#999999"
     borderopacity="1"
     inkscape:showpageshadow="0"
     inkscape:pageopacity="0"
     inkscape:pagecheckerboard="0"
     inkscape:deskcolor="#d1d1d1"
     inkscape:document-units="mm"
     showgrid="false"
     inkscape:zoom="2"
     inkscape:cx="432.25"
     inkscape:cy="36.75"
     inkscape:window-width="1920"
     inkscape:window-height="991"
     inkscape:window-x="-9"
     inkscape:window-y="-9"
     inkscape:window-maximized="1"
     inkscape:current-layer="layer1" /><defs
     id="defs2" /><g
     inkscape:label="Layer 1"
     inkscape:groupmode="layer"
     id="layer1"><path
       style="fill:#a05a2c;stroke-width:0.673108"
       d="m 150.38218,47.143705 c -9.32172,-2.585371 -13.87306,-6.538075 -18.67347,-16.217309 -1.55618,-3.137821 -3.01663,-5.705143 -3.24543,-5.705143 -0.2288,0 -0.78761,1.660773 -1.24189,3.690669 -0.72545,3.629557 -1.29301,4.333785 -4.42757,3.801654 -2.19026,-0.605003 -2.36493,-0.542992 -2.36493,0.840881 0,2.09135 -1.24753,3.10936 -3.81048,3.10936 -2.85436,0 -4.37406,-1.663954 -7.64974,-8.375657 -2.55307,-5.231239 -2.62466,-5.306607 -3.31429,-3.492794 -2.07401,5.455035 -3.71278,8.922546 -4.53886,9.603947 -0.50976,0.42056 -3.227626,0.980087 -6.039646,1.243633 -3.96113,0.371269 -5.24223,0.275072 -5.68759,-0.427716 -0.31617,-0.498471 -0.57948,-4.769019 -0.58512,-9.489226 0,0 1.53583,-7.574075 -0.0103,-8.582121 -1.54617,-1.008049 -4.317184,0.399491 -5.458617,0 -1.141436,-0.399491 0.136814,-2.13146 0.205197,-3.197208 2.46e-4,-0.0039 4.76e-4,-0.0076 6.91e-4,-0.01123 0.06042,-1.061696 -0.929849,-2.088538 0.204489,-3.18588 1.13841,-1.1012704 4.19773,-0.129832 6.29661,-0.194772 2.09887,-0.06518 4.47371,-2.0466394 6.2966,-0.194773 1.82289,1.851862 -0.43367,9.281413 -0.43367,9.281413 -0.39656,8.485606 -1.44729,11.110274 -0.51175,9.571772 1.00191,-1.647578 5.311326,-12.958909 6.824626,-18.63257 l 0.76305,-2.8606804 h 3.30478 3.30476 l 1.13831,4.0569314 c 0.62607,2.231272 1.35189,4.188902 1.61293,4.350208 0.261,0.161374 0.8665,-2.345753 1.34547,-5.571422 1.22517,-8.2508404 0.93302,-8.4871744 5.16794,-8.8936844 4.23492,-0.406491 3.18904,6.313483 2.24844,8.4805184 -0.9406,2.167036 -1.76032,11.366601 -1.38044,14.741692 0.37986,3.37509 0.64738,3.584299 0.88307,3.028985 0.23572,-0.555712 1.85105,-6.461834 3.58967,-13.125598 1.76715,-6.7730014 3.61989,-12.4869674 4.20142,-12.9572944 0.57217,-0.462696 1.88529,-0.84143796 2.9181,-0.84143796 1.41324,0 1.97672,0.39432296 2.27751,1.59240296 0.43368,1.727791 -0.74715,6.968173 -1.88195,8.3522054 -1.34332,1.638354 0.0841,1.603374 5.80693,-0.142307 5.05569,-1.5420794 6.11969,-1.6633984 8.75937,-0.9987694 3.49721,0.8806314 3.9498,1.6405004 2.93889,4.9343814 -0.66264,2.159164 -0.98742,2.416509 -3.04927,2.416509 -3.2846,0 -9.60231,1.960969 -10.04643,3.118344 -0.51484,1.341735 4.8279,11.739895 7.44776,14.494842 4.52102,4.754151 6.24755,5.704745 12.87289,7.087663 2.57031,0.536631 2.6841,0.668601 2.50866,2.907268 -0.15996,2.041185 -1.6709,4.171969 -2.80558,3.95652 -0.20693,-0.03975 -2.79937,-0.743333 -5.76104,-1.564895 z M 30.008105,38.234675 c -1.272109,-1.272093 -0.02463,-5.683042 4.366224,-15.439948 4.156321,-9.235541 4.869889,-11.389618 5.216576,-15.7473794 l 0.401639,-5.048307 h 3.702095 3.702093 l 0.207809,3.659585 c 0.176731,3.112461 0.753033,4.4960144 3.855269,9.2551754 l 3.647452,5.595751 3.020406,-0.825974 c 3.511666,-0.960308 4.754496,2.301113 4.205352,6.395331 -0.317447,2.366819 -0.123949,2.88135 1.642455,4.3677 1.650622,1.38888 1.966543,2.112417 1.798733,4.119417 -0.19946,2.385663 -0.266566,2.438689 -3.33461,2.637124 -2.968666,0.191598 -3.30734,0.02392 -6.530751,-3.197286 -1.869838,-1.869862 -3.734172,-3.399697 -4.142975,-3.399697 -1.499108,0 -12.352015,4.82793 -14.449877,6.428045 -2.063245,1.573719 -6.247339,2.261006 -7.30788,1.200463 z M 44.725908,24.91907 c 1.339845,-0.559767 2.70334,-1.201139 1.247178,-3.423547 -1.456162,-2.222408 -2.141022,-1.314189 -2.981268,0.865048 -0.840244,2.17924 -0.973623,2.524869 -1.20098,3.028985 -0.227365,0.504116 1.619616,0.07949 2.93507,-0.470644 1.315454,-0.54975 -1.339843,0.559923 0,1.58e-4 z M 147.80193,36.888486 c -1.2721,-1.272095 -0.0246,-5.683041 4.36622,-15.439949 4.15633,-9.235539 4.8699,-11.389616 5.21659,-15.7473774 l 0.40164,-5.04830796 h 3.70209 3.70209 l 0.20781,3.65950596 c 0.17673,3.112541 0.75303,4.496013 3.85527,9.2552554 l 3.64746,5.595673 h 3.0204 c 3.6406,0 4.7545,1.475217 4.20536,5.569434 -0.31745,2.36682 -0.12395,2.881351 1.64244,4.367698 1.65063,1.388883 1.96655,2.112419 1.79873,4.11942 -0.19946,2.385662 -0.26656,2.438689 -3.3346,2.637045 -2.96866,0.191599 -3.30734,0.02393 -6.53075,-3.19721 -1.86983,-1.869859 -3.73418,-3.399775 -4.14297,-3.399775 -1.49912,0 -12.35202,4.82793 -14.44988,6.428045 -2.06325,1.573719 -6.24735,2.261084 -7.30789,1.200543 z m 14.7178,-13.315604 c 2.6797,-1.119693 2.70724,-1.195297 1.24719,-3.423547 -1.45228,-2.216485 -1.83606,-2.105105 -2.98127,0.865048 -0.53528,1.388246 -1.07572,2.751287 -1.20098,3.028985 -0.32945,0.730612 0.30417,0.62885 2.93506,-0.470645 z M 7.1224457,35.542298 c -0.24685,-0.246454 -0.448783,-2.177848 -0.448783,-4.29106 0,-3.747038 -0.05088,-3.852535 -2.05846,-4.254016 -1.953496,-0.390348 -2.047889,-0.558094 -1.851051,-3.281398 0.185715,-2.569548 0.40108,-2.892004 2.058467,-3.082727 1.643506,-0.189206 1.852204,-0.491315 1.861347,-2.692456 0.01514,-3.549239 0.704777,-4.290663 3.7603043,-4.040474 2.563753,0.209884 2.628642,0.279842 2.830058,3.058399 l 0.206149,2.843587 3.324234,-1.263108 c 4.024971,-1.52936 9.38908,-4.604296 9.38908,-5.382133 0,-0.787059 -5.418844,-2.070919 -8.740288,-2.070919 -1.517609,0 -5.042942,0.471441 -7.8340493,1.048219 -2.791118,0.576383 -6.034509,0.955203 -7.207535,0.841438 -1.98464599,-0.19238 -2.14702599,-0.403068 -2.33799499,-3.0316884 -0.202658,-2.789526 -0.170847,-2.834046 2.55173199,-3.567204 11.2158113,-3.020079 28.8963263,-1.86215 30.9787233,2.028782 0.36666,0.6853 0.666694,2.7569344 0.666694,4.6038984 0,2.625598 -0.377868,3.807218 -1.732237,5.416793 -2.273859,2.702315 -10.358498,6.653589 -15.684946,7.665876 l -4.236188,0.805024 0.424852,3.400571 c 0.589578,4.719016 0.08252,5.693298 -2.963205,5.693298 -1.3795233,0 -2.7101623,-0.201926 -2.9569653,-0.448384 z M 68.911582,31.912605 c -0.491872,-0.795884 -1.56126,-12.674987 -1.623923,-18.038834 -0.0334,-2.879522 -0.06838,-2.923564 -1.885318,-2.386695 -1.018071,0.300513 -3.365535,0.56048 -5.216576,0.577972 -3.031681,0.02393 -3.387764,-0.126414 -3.589609,-1.552176 -0.512622,-3.6215054 1.556634,-4.8571804 5.590565,-6.1520194 4.033933,-1.294839 5.693378,-2.542232 7.590825,-2.709627 1.897449,-0.167429 4.560029,-0.44306 7.048343,-0.97046896 2.488314,-0.527409 5.1038,-0.864572 6.899351,-0.573201 1.795554,0.29137 2.375164,0.494496 2.375164,3.24395396 0,1.57213 -0.37866,3.156982 -0.84139,3.52181 -0.46277,0.364909 -2.940186,0.849946 -5.505408,1.078033 -2.565218,0.22817 -4.950418,0.701198 -5.300445,1.05108 -1.211198,6.3279104 1.358796,13.8582934 0.890175,19.3602184 l -0.34917,3.926789 -2.798922,0.204318 c -1.616277,0.117674 -3.003727,-0.127195 -3.283618,-0.580355 z M 88.531104,4.1589686 c 0.36086,-2.045265 0.40172,-2.325854 2.35833,-2.760556 1.95665,-0.43471096 3.19752,0.410384 4.55882,0.624241 1.3613,0.213937 1.45257,0.479389 1.45257,2.350833 0,1.87141 -0.48154,2.220262 -2.26776,2.74523 -1.78619,0.524943 -2.83227,0.461104 -5.1385,0.193356 -2.30623,-0.267759 -1.3243,-1.107847 -0.96346,-3.153119 z"
       id="path302"
       sodipodi:nodetypes="cssccsssssscszzssszzssscccssszzzsssssssssssssscccssscccsscssssccsssszzzzzzssscccsscssssccsssscssscccscsscsscssscsscsssscssccccccszzzzssscccccczzzzzzzz" /></g></svg>
