<svg xmlns="http://www.w3.org/2000/svg" width="693.952" height="184.15" viewBox="0 0 183.608 48.723" xmlns:v="https://vecta.io/nano"><path d="M150.382 47.144c-9.322-2.585-13.873-6.538-18.673-16.217-1.556-3.138-3.017-5.705-3.245-5.705s-.788 1.661-1.242 3.691c-.725 3.63-1.293 4.334-4.428 3.802-2.19-.605-2.365-.543-2.365.841 0 2.091-1.248 3.109-3.81 3.109-2.854 0-4.374-1.664-7.65-8.376-2.553-5.231-2.625-5.307-3.314-3.493-2.074 5.455-3.713 8.923-4.539 9.604-.51.421-3.228.98-6.04 1.244-3.961.371-5.242.275-5.688-.428-.316-.498-.579-4.769-.585-9.489 0 0 1.536-7.574-.01-8.582s-4.317.399-5.459 0 .137-2.131.205-3.197c.061-1.073-.929-2.1.205-3.197s4.198-.13 6.297-.195 4.474-2.047 6.297-.195-.434 9.281-.434 9.281c-.397 8.486-1.447 11.11-.512 9.572 1.002-1.648 5.311-12.959 6.825-18.633l.763-2.861h3.305 3.305l1.138 4.057c.626 2.231 1.352 4.189 1.613 4.35s.867-2.346 1.345-5.571c1.225-8.251.933-8.487 5.168-8.894s3.189 6.313 2.248 8.481-1.76 11.367-1.38 14.742.647 3.584.883 3.029 1.851-6.462 3.59-13.126c1.767-6.773 3.62-12.487 4.201-12.957.572-.463 1.885-.841 2.918-.841 1.413 0 1.977.394 2.278 1.592.434 1.728-.747 6.968-1.882 8.352-1.343 1.638.084 1.603 5.807-.142 5.056-1.542 6.12-1.663 8.759-.999 3.497.881 3.95 1.641 2.939 4.934-.663 2.159-.987 2.417-3.049 2.417-3.285 0-9.602 1.961-10.046 3.118-.515 1.342 4.828 11.74 7.448 14.495 4.521 4.754 6.248 5.705 12.873 7.088 2.57.537 2.684.669 2.509 2.907-.16 2.041-1.671 4.172-2.806 3.957-.207-.04-2.799-.743-5.761-1.565zM30.008 38.235c-1.272-1.272-.025-5.683 4.366-15.44 4.156-9.236 4.87-11.39 5.217-15.747l.402-5.048h3.702 3.702l.208 3.66c.177 3.112.753 4.496 3.855 9.255l3.647 5.596 3.02-.826c3.512-.96 4.754 2.301 4.205 6.395-.317 2.367-.124 2.881 1.642 4.368 1.651 1.389 1.967 2.112 1.799 4.119-.199 2.386-.267 2.439-3.335 2.637-2.969.192-3.307.024-6.531-3.197-1.87-1.87-3.734-3.4-4.143-3.4-1.499 0-12.352 4.828-14.45 6.428-2.063 1.574-6.247 2.261-7.308 1.2zm14.718-13.316c1.34-.56 2.703-1.201 1.247-3.424s-2.141-1.314-2.981.865l-1.201 3.029c-.227.504 1.62.079 2.935-.471s-1.34.56 0 0zm103.076 11.969c-1.272-1.272-.025-5.683 4.366-15.44 4.156-9.236 4.87-11.39 5.217-15.747l.402-5.048h3.702 3.702l.208 3.66c.177 3.113.753 4.496 3.855 9.255l3.647 5.596h3.02c3.641 0 4.755 1.475 4.205 5.569-.317 2.367-.124 2.881 1.642 4.368 1.651 1.389 1.967 2.112 1.799 4.119-.199 2.386-.267 2.439-3.335 2.637-2.969.192-3.307.024-6.531-3.197-1.87-1.87-3.734-3.4-4.143-3.4-1.499 0-12.352 4.828-14.45 6.428-2.063 1.574-6.247 2.261-7.308 1.201zm14.718-13.316c2.68-1.12 2.707-1.195 1.247-3.424-1.452-2.216-1.836-2.105-2.981.865l-1.201 3.029c-.329.731.304.629 2.935-.471zM7.122 35.542c-.247-.246-.449-2.178-.449-4.291 0-3.747-.051-3.853-2.058-4.254-1.953-.39-2.048-.558-1.851-3.281.186-2.57.401-2.892 2.058-3.083 1.644-.189 1.852-.491 1.861-2.692.015-3.549.705-4.291 3.76-4.04 2.564.21 2.629.28 2.83 3.058l.206 2.844 3.324-1.263c4.025-1.529 9.389-4.604 9.389-5.382 0-.787-5.419-2.071-8.74-2.071-1.518 0-5.043.471-7.834 1.048s-6.035.955-7.208.841C.427 12.783.265 12.573.074 9.944-.129 7.154-.097 7.11 2.626 6.377c11.216-3.02 28.896-1.862 30.979 2.029.367.685.667 2.757.667 4.604 0 2.626-.378 3.807-1.732 5.417-2.274 2.702-10.358 6.654-15.685 7.666l-4.236.805.425 3.401c.59 4.719.083 5.693-2.963 5.693-1.38 0-2.71-.202-2.957-.448zm61.789-3.63c-.492-.796-1.561-12.675-1.624-18.039-.033-2.88-.068-2.924-1.885-2.387-1.018.301-3.366.56-5.217.578-3.032.024-3.388-.126-3.59-1.552-.513-3.622 1.557-4.857 5.591-6.152s5.693-2.542 7.591-2.71 4.56-.443 7.048-.97 5.104-.865 6.899-.573S86.1.602 86.1 3.352c0 1.572-.379 3.157-.841 3.522s-2.94.85-5.505 1.078-4.95.701-5.3 1.051c-1.211 6.328 1.359 13.858.89 19.36l-.349 3.927-2.799.204c-1.616.118-3.004-.127-3.284-.58zm19.62-27.754c.361-2.045.402-2.326 2.358-2.761s3.198.41 4.559.624 1.453.479 1.453 2.351-.482 2.22-2.268 2.745-2.832.461-5.138.193-1.324-1.108-.963-3.153z" fill="#a05a2c"/></svg>